PathFileType	4	(X/Y/Z)	C:\Users\dbl\Desktop\20210112(1)\20210112\bx_y_10_901.trc
DataRate	CameraRate	NumFrames	NumMarkers	Units	OrigDataRate	OrigDataStartFrame	OrigNumFrames
50.00	50.00	       8	43	mm	50.00	398	       530
Frame#	Time	Top.Head			R.Acromium			L.Acromium			Sternum			R.ASIS			L.ASIS			V.Sacral			R.Thigh.Upper			R.Thigh.Front			R.Thigh.Rear			R.Knee.Lat			R.Knee.Med			R.Shank.Upper			R.Shank.Front			R.Shank.Rear			R.Ankle.Lat			R.Midfoot.Lat			R.Toe.Lat			R.Toe.Tip			R.Toe.Med			R.Ankle.Med			R.Midfoot.Sup			R.Heel			L.Thigh.Upper			L.Thigh.Front			L.Thigh.Rear			L.Knee.Lat			L.Knee.Med			L.Shank.Upper			L.Shank.Front			L.Shank.Rear			L.Ankle.Lat			L.Midfoot.Lat			L.Toe.Lat			L.Toe.Tip			L.Toe.Med			L.Ankle.Med			L.Midfoot.Sup			L.Heel			origin1 front left			origin2 front right			origin 3 back right			origin 4 back leftt			
		X1	Y1	Z1	X2	Y2	Z2	X3	Y3	Z3	X4	Y4	Z4	X5	Y5	Z5	X6	Y6	Z6	X7	Y7	Z7	X8	Y8	Z8	X9	Y9	Z9	X10	Y10	Z10	X11	Y11	Z11	X12	Y12	Z12	X13	Y13	Z13	X14	Y14	Z14	X15	Y15	Z15	X16	Y16	Z16	X17	Y17	Z17	X18	Y18	Z18	X19	Y19	Z19	X20	Y20	Z20	X21	Y21	Z21	X22	Y22	Z22	X23	Y23	Z23	X24	Y24	Z24	X25	Y25	Z25	X26	Y26	Z26	X27	Y27	Z27	X28	Y28	Z28	X29	Y29	Z29	X30	Y30	Z30	X31	Y31	Z31	X32	Y32	Z32	X33	Y33	Z33	X34	Y34	Z34	X35	Y35	Z35	X36	Y36	Z36	X37	Y37	Z37	X38	Y38	Z38	X39	Y39	Z39	X40	Y40	Z40	X41	Y41	Z41	X42	Y42	Z42	X43	Y43	Z43	

398	7.940	-148.07086	133.85355	1359.63257	-339.67145	-52.70036	1165.11255	-349.55695	273.11627	1159.60278	-421.47086	100.10369	1189.30371	-787.38379	-38.58609	781.38086	-759.16199	186.80566	1006.78339	-921.37183	67.91196	1097.50024	-817.59253	-87.79396	861.89063	-747.51770	-19.91290	800.89746	-838.34613	-77.59344	708.61035	-818.36279	-49.40927	608.81610	-800.50317	62.89288	568.85010	-819.89813	-44.43037	557.75598	-761.15747	1.97263	524.71802	-844.73309	-55.97667	470.47519	-773.66309	-16.83115	200.98428	-663.16370	-69.96350	160.43602	-621.55878	-80.82377	156.71927	-562.74506	-36.26470	163.20387	-605.78485	20.23548	167.64172	-731.56366	67.04580	222.82709	-679.33154	50.73243	164.25851	-799.79510	45.02246	171.97391	-823.61975	262.82462	866.47400	-759.36407	197.25052	803.77148	-856.69507	270.19083	739.39954	-852.94824	242.30165	622.23621	-801.69592	134.87398	564.20746	-838.61975	238.52689	563.98962	-774.99609	198.34610	534.01617	-859.33411	252.70506	485.02850	-777.04425	227.52797	201.55186	-665.87354	299.09262	159.13879	-627.80841	306.39722	161.38673	-562.07190	257.24539	164.44580	-597.51416	221.66902	173.40724	-722.71277	157.58919	222.37685	-678.43622	176.09903	162.87344	-801.52917	177.72467	180.97092	-528.04559	304.11655	146.41661	-517.99677	-72.42815	142.84508	-876.50494	-78.23499	141.39891	-882.56812	296.12277	144.65677	
399	7.960	-157.67459	133.68430	1383.62268	-343.30698	-53.06452	1181.90771	-353.36899	273.99518	1176.30945	-424.37515	100.14534	1194.78491	-781.02698	-36.92609	807.79169	-756.51556	187.46849	1008.78021	-921.72839	67.90805	1096.88306	-815.37079	-87.52776	862.19873	-745.62329	-19.47058	801.37140	-836.41565	-77.08171	708.87817	-816.82666	-49.09431	609.10614	-798.91248	63.06484	569.48596	-818.64197	-44.40020	558.10547	-760.01636	2.11267	524.83771	-843.86261	-56.10123	470.82919	-773.69757	-16.80398	201.03520	-663.20038	-69.96176	160.34558	-621.53198	-80.80074	156.59641	-562.74200	-36.29018	163.19061	-605.76855	20.20057	167.71617	-731.48492	67.08324	222.78619	-679.28918	50.79862	164.31131	-799.80908	45.02238	171.93634	-821.68164	262.70932	866.93652	-757.63586	197.08467	804.48468	-854.91846	270.03867	740.06793	-851.79822	242.05022	622.67847	-800.59961	134.91068	564.33148	-837.67133	238.40475	564.17780	-774.14905	198.20917	534.01758	-858.54059	252.66408	485.29608	-777.00232	227.49315	201.48781	-665.80530	299.19427	159.20033	-627.76166	306.38742	161.34006	-562.02905	257.26498	164.46115	-597.60004	221.80904	173.40237	-722.59161	157.57292	222.35513	-678.41437	176.10521	162.87231	-801.51581	177.57977	180.96562	-528.06006	304.12396	146.41782	-518.02258	-72.39865	142.83493	-876.62903	-78.13793	141.32811	-882.55725	296.06070	144.62248	
400	7.980	-168.11304	133.45273	1407.51880	-347.44141	-53.41893	1198.77893	-357.70554	275.05560	1193.18677	-427.39981	100.17220	1200.39221	-774.71021	-35.26522	833.77649	-753.82739	188.15317	1010.78644	-922.00385	67.90568	1096.28259	-813.12946	-87.25835	862.55505	-743.55463	-19.01737	801.96576	-834.40125	-76.48540	709.10645	-815.22949	-48.82087	609.45325	-797.39581	63.04823	569.98419	-817.33563	-44.32716	558.51141	-759.00708	2.26949	524.88464	-842.87323	-56.09071	471.20059	-773.73737	-16.76016	201.13219	-663.25159	-69.97901	160.29095	-621.51147	-80.80012	156.53835	-562.73627	-36.30631	163.18605	-605.73474	20.12387	167.79379	-731.37988	67.08853	222.71455	-679.23071	50.86171	164.38309	-799.79163	45.06790	171.94374	-819.66138	262.72128	867.48907	-755.88135	197.04768	805.25928	-853.01233	269.95844	740.80554	-850.52032	241.79337	623.19409	-799.37256	134.96466	564.54681	-836.64581	238.34982	564.35480	-773.15692	198.13313	534.05389	-857.62073	252.66644	485.57379	-776.95959	227.45148	201.44911	-665.79828	299.29471	159.31793	-627.74042	306.35678	161.29338	-561.99213	257.27374	164.52103	-597.63043	221.91177	173.39848	-722.38800	157.52444	222.35771	-678.37799	176.11272	162.85695	-801.48230	177.47278	180.96773	-528.06885	304.15997	146.44904	-518.04291	-72.39146	142.81183	-876.64081	-78.11858	141.31155	-882.54883	296.03299	144.61325	
401	8.000	-179.37762	133.08569	1431.25977	-352.03558	-53.71204	1215.67407	-362.49146	276.25671	1210.29175	-430.54565	100.18386	1206.12439	-768.47015	-33.61491	859.08582	-751.09827	188.85974	1012.80048	-922.16174	67.96652	1095.70032	-810.83606	-87.00687	862.94531	-741.32629	-18.57629	802.63580	-832.19525	-75.95070	709.40552	-813.55151	-48.56852	609.83447	-796.02808	62.90241	570.27496	-815.95422	-44.21016	558.88123	-758.08887	2.40274	524.86841	-841.75800	-55.96394	471.55597	-773.76929	-16.71700	201.25838	-663.30658	-70.01325	160.25282	-621.51703	-80.82326	156.53667	-562.72278	-36.33225	163.19424	-605.69214	20.00769	167.87788	-731.22736	67.03477	222.61563	-679.19202	50.83783	164.41661	-799.77069	45.12344	171.99117	-817.52039	262.76431	868.08789	-754.00958	197.08585	806.05389	-850.91357	269.96286	741.56427	-849.07513	241.57547	623.80499	-798.08752	135.06859	564.81689	-835.47192	238.43147	564.56915	-772.01007	198.15211	534.13092	-856.58154	252.69038	485.87466	-776.92310	227.40399	201.42024	-665.82935	299.36823	159.43695	-627.75604	306.33826	161.28001	-561.96136	257.30179	164.61743	-597.62494	221.97609	173.39447	-722.12079	157.41020	222.38303	-678.32916	176.11833	162.80948	-801.45380	177.40324	180.95978	-528.06873	304.20331	146.49539	-518.05109	-72.39896	142.78535	-876.59406	-78.15023	141.34787	-882.55219	296.04660	144.62524	
402	8.020	-191.48239	132.52087	1454.81445	-357.07791	-53.99134	1232.58691	-367.69760	277.39761	1227.52295	-433.81354	100.17992	1211.98047	-762.34314	-31.98670	883.47089	-748.32904	189.58830	1014.82074	-922.19336	68.11726	1095.09656	-808.47723	-86.74964	863.31622	-739.01709	-18.27747	803.26288	-829.85944	-75.49625	709.80804	-811.80420	-48.30983	610.20923	-794.79468	62.74230	570.38562	-814.51324	-44.07381	559.18353	-757.13214	2.47132	524.84332	-840.57715	-55.83875	471.93167	-773.79932	-16.68601	201.40135	-663.35834	-70.06268	160.21010	-621.55634	-80.85845	156.56044	-562.69299	-36.36812	163.21181	-605.66522	19.87511	167.98164	-731.02460	66.92152	222.50211	-679.19147	50.71795	164.38765	-799.77234	45.15776	172.04369	-815.24756	262.76776	868.70764	-751.92072	197.10512	806.84039	-848.60547	270.05740	742.30914	-847.46869	241.44254	624.49762	-796.77509	135.19183	565.09827	-834.10425	238.66577	564.87158	-770.73218	198.26204	534.24615	-855.47302	252.72363	486.20624	-776.88715	227.36407	201.39565	-665.86963	299.40668	159.51454	-627.78931	306.35306	161.31244	-561.94788	257.34891	164.72148	-597.58942	222.00096	173.40038	-721.82263	157.23370	222.40141	-678.27295	176.11081	162.71124	-801.41925	177.35747	180.94287	-528.06586	304.21521	146.52705	-518.05249	-72.41370	142.75357	-876.55066	-78.18752	141.39430	-882.55951	296.08667	144.64882	
403	8.040	-204.43842	131.73756	1478.12646	-362.60193	-54.32856	1249.46228	-373.29700	278.28674	1244.69043	-437.20422	100.15997	1217.95959	-756.36536	-30.39215	906.68469	-745.52045	190.33890	1016.84552	-922.06073	68.32909	1094.42761	-806.03851	-86.46790	863.63318	-736.65778	-18.15888	803.71198	-827.53296	-75.05141	710.24536	-810.00598	-48.02625	610.56543	-793.61548	62.67515	570.39337	-813.02692	-43.92517	559.44409	-755.98230	2.46628	524.87646	-839.39917	-55.78502	472.35721	-773.83954	-16.64845	201.53371	-663.41125	-70.12354	160.15480	-621.60406	-80.89819	156.57993	-562.65002	-36.40329	163.22830	-605.66431	19.74651	168.11401	-730.79523	66.79707	222.36009	-679.21149	50.57933	164.32648	-799.79767	45.16392	172.05038	-812.83789	262.75766	869.34229	-749.57373	197.10916	807.58020	-846.09692	270.20767	743.02936	-845.75317	241.38910	625.20428	-795.39099	135.26001	565.36755	-832.56152	238.98827	565.28003	-769.35321	198.44635	534.39978	-854.33051	252.76036	486.56119	-776.83453	227.35201	201.38216	-665.90564	299.41299	159.54199	-627.82043	306.39423	161.37662	-561.96399	257.39871	164.81485	-597.53162	222.00189	173.43504	-721.53680	157.05746	222.38344	-678.22797	176.06784	162.57501	-801.34338	177.31245	180.93086	-528.06268	304.18591	146.52101	-518.05011	-72.43620	142.71941	-876.53510	-78.20211	141.40826	-882.56049	296.13760	144.67363	
404	8.060	-218.22760	130.76112	1501.10376	-368.63406	-54.72659	1266.20422	-379.20822	278.87433	1261.67261	-440.71848	100.12359	1224.06042	-750.57263	-28.84250	928.48248	-742.67340	191.11160	1018.87323	-921.69006	68.56622	1093.69104	-803.48926	-86.17226	863.92334	-734.20154	-18.07110	803.94177	-825.26361	-74.57040	710.66541	-808.15259	-47.69349	610.89551	-792.37823	62.75586	570.37933	-811.48688	-43.75800	559.71844	-754.58478	2.44022	524.98718	-838.23676	-55.74110	472.80035	-773.89075	-16.57476	201.62379	-663.46777	-70.18161	160.10141	-621.62762	-80.93812	156.57954	-562.61652	-36.44698	163.24332	-605.68018	19.63396	168.26358	-730.55750	66.73277	222.17569	-679.22522	50.49989	164.28015	-799.82983	45.15964	171.99884	-810.28162	262.80286	869.98840	-746.99475	197.17236	808.24640	-843.42102	270.37204	743.74255	-843.98346	241.36948	625.85870	-793.88733	135.26036	565.59851	-830.91351	239.31644	565.74890	-767.90295	198.66977	534.59070	-853.15369	252.79518	486.91602	-776.76025	227.37715	201.38245	-665.93573	299.40091	159.53987	-627.85193	306.43069	161.44170	-562.01288	257.44595	164.89084	-597.48016	222.00879	173.52074	-721.28125	156.94710	222.32945	-678.21002	175.98604	162.43494	-801.21088	177.26250	180.93480	-528.05548	304.14203	146.48091	-518.04230	-72.45754	142.70769	-876.53467	-78.18794	141.36888	-882.56628	296.17960	144.68143	
405	8.080	-232.79214	129.65102	1523.65674	-375.12674	-55.13290	1282.73633	-385.34631	279.23068	1278.43250	-444.35718	100.07040	1230.28223	-745.00073	-27.34818	948.61737	-739.78870	191.90646	1020.90222	-921.04010	68.84562	1092.92554	-800.79846	-85.87106	864.25159	-731.64178	-17.84486	804.04724	-822.95227	-74.05632	711.08209	-806.21515	-47.29556	611.19452	-790.96771	62.97018	570.40436	-809.87677	-43.57671	560.06360	-753.01440	2.47836	525.13495	-837.03296	-55.60990	473.21539	-773.94171	-16.46885	201.68626	-663.52155	-70.22497	160.06876	-621.62463	-80.96749	156.56668	-562.61664	-36.52700	163.26540	-605.70007	19.55386	168.40976	-730.29645	66.75529	221.99744	-679.21155	50.49245	164.27095	-799.85608	45.17626	171.94406	-807.58362	262.95154	870.65924	-744.27063	197.32889	808.87689	-840.64636	270.54099	744.49231	-842.18182	241.36142	626.47620	-792.26929	135.28714	565.79205	-829.23389	239.61305	566.23077	-766.40698	198.87262	534.81342	-851.92078	252.82404	487.24380	-776.67999	227.42986	201.40022	-665.96082	299.38535	159.53055	-627.90167	306.43076	161.47690	-562.08667	257.50223	164.94267	-597.46179	222.05714	173.66797	-721.02991	156.90889	222.24808	-678.21442	175.89528	162.31996	-801.05005	177.22458	180.94910	-528.04388	304.10397	146.42860	-518.02960	-72.45222	142.73320	-876.51801	-78.15622	141.28189	-882.59326	296.17950	144.65370	
